<?xml version="1.0"?>
<svg width="56" height="56" xmlns="http://www.w3.org/2000/svg" xmlns:svg="http://www.w3.org/2000/svg">
 <g class="layer">
  <title>Layer 1</title>
  <path d="m13.79,49.57l28.45,0c4.9,0 7.33,-2.43 7.33,-7.26l0,-28.62c0,-4.83 -2.43,-7.26 -7.33,-7.26l-28.45,0c-4.88,0 -7.36,2.41 -7.36,7.26l0,28.62c0,4.85 2.48,7.26 7.36,7.26zm14.25,-14.08c-4.18,0 -7.58,-3.35 -7.58,-7.55c0,-4.15 3.4,-7.52 7.58,-7.52c4.14,0 7.54,3.37 7.54,7.52c0,4.2 -3.4,7.55 -7.54,7.55z" id="svg_1"/>
  <ellipse cx="27.98" cy="27.65" fill="#ffffff" id="svg_2" rx="8.12" ry="8"/>
 </g>
</svg>